<svg width="24" height="24" viewBox="0 0 24 24" fill="none" xmlns="http://www.w3.org/2000/svg">
<path fill-rule="evenodd" clip-rule="evenodd" d="M6.73649 4.5C4.65746 4.5 2.5 6.38043 2.5 9.01351C2.5 12.1209 4.8236 14.9738 7.36118 17.1342C8.60701 18.1948 9.85656 19.0479 10.7965 19.6364C11.2656 19.9301 11.6557 20.1567 11.9269 20.3091C11.9523 20.3234 11.9767 20.337 12 20.35C12.0233 20.337 12.0477 20.3234 12.0731 20.3091C12.3443 20.1567 12.7344 19.9301 13.2035 19.6364C14.1434 19.0479 15.393 18.1948 16.6388 17.1342C19.1764 14.9738 21.5 12.1209 21.5 9.01351C21.5 6.38043 19.3425 4.5 17.2635 4.5C15.1581 4.5 13.4627 5.88899 12.7115 8.14258C12.6094 8.44883 12.3228 8.65541 12 8.65541C11.6772 8.65541 11.3906 8.44883 11.2885 8.14258C10.5373 5.88899 8.84185 4.5 6.73649 4.5ZM12 21.2027L12.3426 21.8699C12.1276 21.9803 11.8725 21.9803 11.6574 21.8699L12 21.2027ZM1 9.01351C1 5.552 3.82903 3 6.73649 3C9.02981 3 10.8808 4.22621 12 6.10482C13.1192 4.22621 14.9702 3 17.2635 3C20.171 3 23 5.552 23 9.01351C23 12.8318 20.1986 16.0735 17.6112 18.2763C16.2945 19.3973 14.9816 20.2929 13.9996 20.9077C13.5078 21.2157 13.0971 21.4544 12.8078 21.6169C12.6631 21.6982 12.5486 21.7605 12.4694 21.8029C12.4299 21.8241 12.3991 21.8404 12.3777 21.8516L12.3529 21.8646L12.3459 21.8682L12.3438 21.8693C12.3435 21.8694 12.3426 21.8699 12 21.2027C11.6574 21.8699 11.6576 21.87 11.6574 21.8699L11.6541 21.8682L11.6471 21.8646L11.6223 21.8516C11.6009 21.8404 11.5701 21.8241 11.5306 21.8029C11.4514 21.7605 11.3369 21.6982 11.1922 21.6169C10.9029 21.4544 10.4922 21.2157 10.0004 20.9077C9.01844 20.2929 7.70549 19.3973 6.38882 18.2763C3.80141 16.0735 1 12.8318 1 9.01351Z" fill="black"/>
<path d="M12 21.2027L12.3426 21.8699C12.1276 21.9803 11.8725 21.9803 11.6574 21.8699M12 21.2027L11.6574 21.8699M12 21.2027C12.3426 21.8699 12.3435 21.8694 12.3438 21.8693L12.3459 21.8682L12.3529 21.8646L12.3777 21.8516C12.3991 21.8404 12.4299 21.8241 12.4694 21.8029C12.5486 21.7605 12.6631 21.6982 12.8078 21.6169C13.0971 21.4544 13.5078 21.2157 13.9996 20.9077C14.9816 20.2929 16.2945 19.3973 17.6112 18.2763C20.1986 16.0735 23 12.8318 23 9.01351C23 5.552 20.171 3 17.2635 3C14.9702 3 13.1192 4.22621 12 6.10482C10.8808 4.22621 9.02981 3 6.73649 3C3.82903 3 1 5.552 1 9.01351C1 12.8318 3.80141 16.0735 6.38882 18.2763C7.70549 19.3973 9.01844 20.2929 10.0004 20.9077C10.4922 21.2157 10.9029 21.4544 11.1922 21.6169C11.3369 21.6982 11.4514 21.7605 11.5306 21.8029C11.5701 21.8241 11.6009 21.8404 11.6223 21.8516L11.6471 21.8646L11.6541 21.8682L11.6574 21.8699M12 21.2027C11.6574 21.8699 11.6576 21.87 11.6574 21.8699M2.5 9.01351C2.5 6.38043 4.65746 4.5 6.73649 4.5C8.84185 4.5 10.5373 5.88899 11.2885 8.14258C11.3906 8.44883 11.6772 8.65541 12 8.65541C12.3228 8.65541 12.6094 8.44883 12.7115 8.14258C13.4627 5.88899 15.1581 4.5 17.2635 4.5C19.3425 4.5 21.5 6.38043 21.5 9.01351C21.5 12.1209 19.1764 14.9738 16.6388 17.1342C15.393 18.1948 14.1434 19.0479 13.2035 19.6364C12.7344 19.9301 12.3443 20.1567 12.0731 20.3091C12.0477 20.3234 12.0233 20.337 12 20.35C11.9767 20.337 11.9523 20.3234 11.9269 20.3091C11.6557 20.1567 11.2656 19.9301 10.7965 19.6364C9.85656 19.0479 8.60701 18.1948 7.36118 17.1342C4.8236 14.9738 2.5 12.1209 2.5 9.01351Z" stroke="black" stroke-linecap="round" stroke-linejoin="round"/>
</svg>
