<svg width="24" height="24" viewBox="0 0 24 24" fill="none" xmlns="http://www.w3.org/2000/svg">
<path d="M9.72965 14.3991C9.50289 14.1016 9.07817 14.0422 8.77836 14.2671C8.48347 14.4882 8.4235 14.9337 8.6458 15.2266C8.66789 15.2549 8.69038 15.2827 8.71372 15.3099C8.75341 15.3563 8.80918 15.418 8.88111 15.4899C9.02465 15.6335 9.23477 15.8198 9.51237 16.0048C10.0702 16.3767 10.9027 16.7443 11.9999 16.7443C13.0972 16.7443 13.9297 16.3767 14.4875 16.0048C14.7651 15.8198 14.9753 15.6335 15.1188 15.4899C15.1907 15.418 15.2465 15.3563 15.2862 15.3099L15.3579 15.2216C15.5838 14.9204 15.5228 14.493 15.2215 14.2671C14.9217 14.0422 14.497 14.1016 14.2702 14.3991L14.2691 14.4006C14.2609 14.4108 14.2224 14.4579 14.1546 14.5257C14.0637 14.6165 13.9223 14.7428 13.7311 14.8702C13.3514 15.1233 12.7777 15.3807 11.9999 15.3807C11.2222 15.3807 10.6485 15.1233 10.2688 14.8702C10.0776 14.7428 9.93619 14.6165 9.84535 14.5257C9.80502 14.4854 9.7652 14.4438 9.72965 14.3991Z" fill="black"/>
<path d="M15.6364 11.7727C16.264 11.7727 16.7727 11.264 16.7727 10.6364C16.7727 10.0088 16.264 9.5 15.6364 9.5C15.0088 9.5 14.5 10.0088 14.5 10.6364C14.5 11.264 15.0088 11.7727 15.6364 11.7727Z" fill="black"/>
<path d="M9.27273 10.6364C9.27273 11.264 8.76396 11.7727 8.13636 11.7727C7.50877 11.7727 7 11.264 7 10.6364C7 10.0088 7.50877 9.5 8.13636 9.5C8.76396 9.5 9.27273 10.0088 9.27273 10.6364Z" fill="black"/>
<path fill-rule="evenodd" clip-rule="evenodd" d="M12 2C6.47715 2 2 6.47715 2 12C2 17.5228 6.47715 22 12 22C17.5228 22 22 17.5228 22 12C22 6.47715 17.5228 2 12 2ZM12 3.61932C7.37148 3.61932 3.61932 7.37148 3.61932 12C3.61932 16.6285 7.37148 20.3807 12 20.3807C16.6285 20.3807 20.3807 16.6285 20.3807 12C20.3807 7.37148 16.6285 3.61932 12 3.61932Z" fill="black"/>
<path d="M9.72965 14.3991C9.50289 14.1016 9.07817 14.0422 8.77836 14.2671C8.48347 14.4882 8.4235 14.9337 8.6458 15.2266C8.66789 15.2549 8.69038 15.2827 8.71372 15.3099C8.75341 15.3563 8.80918 15.418 8.88111 15.4899C9.02465 15.6335 9.23477 15.8198 9.51237 16.0048C10.0702 16.3767 10.9027 16.7443 11.9999 16.7443C13.0972 16.7443 13.9297 16.3767 14.4875 16.0048C14.7651 15.8198 14.9753 15.6335 15.1188 15.4899C15.1907 15.418 15.2465 15.3563 15.2862 15.3099L15.3579 15.2216C15.5838 14.9204 15.5228 14.493 15.2215 14.2671C14.9217 14.0422 14.497 14.1016 14.2702 14.3991L14.2691 14.4006C14.2609 14.4108 14.2224 14.4579 14.1546 14.5257C14.0637 14.6165 13.9223 14.7428 13.7311 14.8702C13.3514 15.1233 12.7777 15.3807 11.9999 15.3807C11.2222 15.3807 10.6485 15.1233 10.2688 14.8702C10.0776 14.7428 9.93619 14.6165 9.84535 14.5257C9.80502 14.4854 9.7652 14.4438 9.72965 14.3991Z" stroke="black"/>
<path d="M15.6364 11.7727C16.264 11.7727 16.7727 11.264 16.7727 10.6364C16.7727 10.0088 16.264 9.5 15.6364 9.5C15.0088 9.5 14.5 10.0088 14.5 10.6364C14.5 11.264 15.0088 11.7727 15.6364 11.7727Z" stroke="black"/>
<path d="M9.27273 10.6364C9.27273 11.264 8.76396 11.7727 8.13636 11.7727C7.50877 11.7727 7 11.264 7 10.6364C7 10.0088 7.50877 9.5 8.13636 9.5C8.76396 9.5 9.27273 10.0088 9.27273 10.6364Z" stroke="black"/>
<path fill-rule="evenodd" clip-rule="evenodd" d="M12 2C6.47715 2 2 6.47715 2 12C2 17.5228 6.47715 22 12 22C17.5228 22 22 17.5228 22 12C22 6.47715 17.5228 2 12 2ZM12 3.61932C7.37148 3.61932 3.61932 7.37148 3.61932 12C3.61932 16.6285 7.37148 20.3807 12 20.3807C16.6285 20.3807 20.3807 16.6285 20.3807 12C20.3807 7.37148 16.6285 3.61932 12 3.61932Z" stroke="black"/>
</svg>
