<svg width="24" height="24" viewBox="0 0 24 24" fill="none" xmlns="http://www.w3.org/2000/svg">
<rect width="5.27539" height="2.90378" rx="1.45189" transform="matrix(-0.577715 0.816238 -0.835491 -0.549504 15.4738 13.5956)" fill="black" stroke="black" stroke-width="2"/>
<path d="M21.9087 2L12 16" stroke="black" stroke-width="2" stroke-linecap="round" stroke-linejoin="round"/>
<path fill-rule="evenodd" clip-rule="evenodd" d="M7.71527 10.0876C7.35192 9.90728 6.8873 10.0143 6.67752 10.3266C6.23367 10.9874 6 11.737 6 12.5C6 13.263 6.23367 14.0126 6.67752 14.6734C6.8873 14.9857 7.35192 15.0927 7.71527 14.9124C8.07862 14.7321 8.20311 14.3327 7.99333 14.0204C7.68283 13.5582 7.51937 13.0338 7.51937 12.5C7.51936 11.9662 7.68283 11.4418 7.99333 10.9796C8.20311 10.6673 8.07862 10.2679 7.71527 10.0876Z" fill="black"/>
<path fill-rule="evenodd" clip-rule="evenodd" d="M9.37997 11.9124C9.74332 12.0927 10.2079 11.9857 10.4177 11.6734C10.8616 11.0126 11.0952 10.263 11.0952 9.5C11.0952 8.73698 10.8616 7.9874 10.4177 7.3266C10.2079 7.01428 9.74332 6.90728 9.37997 7.08759C9.01662 7.26791 8.89212 7.66726 9.10191 7.97958C9.41241 8.44185 9.57587 8.96622 9.57587 9.5C9.57587 10.0338 9.41241 10.5582 9.10191 11.0204C8.89213 11.3327 9.01662 11.7321 9.37997 11.9124Z" fill="black"/>
<path fill-rule="evenodd" clip-rule="evenodd" d="M1 13C1 7.47715 5.47715 3 11 3C16.5228 3 21 7.47715 21 13C21 18.5228 16.5228 23 11 23C5.47715 23 1 18.5228 1 13ZM11 5C6.58172 5 3 8.58172 3 13C3 17.4183 6.58172 21 11 21C15.4183 21 19 17.4183 19 13C19 8.58172 15.4183 5 11 5Z" fill="black"/>
</svg>
